 <svg
            class="size-6"
            viewBox="0 0 24 24"
            fill="none"
            xmlns="http://www.w3.org/2000/svg">
            <path
              fill-rule="evenodd"
              clip-rule="evenodd"
              d="M19.75 12.0006C19.75 11.8017 19.671 11.6109 19.5303 11.4703C19.3897 11.3296 19.1989 11.2506 19 11.2506H5C4.80109 11.2506 4.61032 11.3296 4.46967 11.4703C4.32902 11.6109 4.25 11.8017 4.25 12.0006C4.25 12.1995 4.32902 12.3903 4.46967 12.5309C4.61032 12.6716 4.80109 12.7506 5 12.7506H19C19.1989 12.7506 19.3897 12.6716 19.5303 12.5309C19.671 12.3903 19.75 12.1995 19.75 12.0006ZM19.75 7.00062C19.75 6.80171 19.671 6.61094 19.5303 6.47029C19.3897 6.32964 19.1989 6.25062 19 6.25062H5C4.80109 6.25062 4.61032 6.32964 4.46967 6.47029C4.32902 6.61094 4.25 6.80171 4.25 7.00062C4.25 7.19953 4.32902 7.3903 4.46967 7.53095C4.61032 7.6716 4.80109 7.75062 5 7.75062H19C19.1989 7.75062 19.3897 7.6716 19.5303 7.53095C19.671 7.3903 19.75 7.19953 19.75 7.00062ZM19.75 17.0006C19.75 16.8017 19.671 16.6109 19.5303 16.4703C19.3897 16.3296 19.1989 16.2506 19 16.2506H5C4.80109 16.2506 4.61032 16.3296 4.46967 16.4703C4.32902 16.6109 4.25 16.8017 4.25 17.0006C4.25 17.1995 4.32902 17.3903 4.46967 17.5309C4.61032 17.6716 4.80109 17.7506 5 17.7506H19C19.1989 17.7506 19.3897 17.6716 19.5303 17.5309C19.671 17.3903 19.75 17.1995 19.75 17.0006Z"
              fill="currentColor" />
          </svg>